<?xml version="1.0" encoding="utf-8"?>
<svg version="1.1" id="Layer_1" xmlns="http://www.w3.org/2000/svg" xmlns:xlink="http://www.w3.org/1999/xlink" x="0px" y="0px"
	 viewBox="0 0 512 512" style="enable-background:new 0 0 512 512;" xml:space="preserve">
<style type="text/css">
	.st0{fill:#004A99;}
	.st1{fill:#FFFFFF;}
</style>
<rect class="st0" width="512" height="512"/>
<g>
	<path class="st1" d="M128.5,312.3l-10.7-31.5H73.2l-10.7,31.5H41L91,173.2h19.5l50.1,139.1H128.5z M95.8,216.9l-18,52.4h36.1L95.8,216.9z"
		/>
	<path class="st1" d="M196.4,312.3V173.2h41.4c33.5,0,50.2,16.7,50.2,50.2c0,33.5-16.7,50.2-50.2,50.2h-20v38.9H196.4z M217.8,252.1
		h20c19.1,0,28.7-9.6,28.7-28.7c0-19.1-9.6-28.7-28.7-28.7h-20V252.1z"/>
</g>
</svg>
